<svg xmlns="http://www.w3.org/2000/svg" viewBox="0 0 700 700"><defs><style>.cls-1{fill:#fff;}.cls-2,.cls-3{fill:none;stroke:#00a8ff;stroke-miterlimit:10;}.cls-2{stroke-width:30px;}.cls-3{stroke-width:14px;}</style></defs><title>logo</title><g id="Layer_2" data-name="Layer 2"><circle class="cls-1" cx="353" cy="350" r="339"/></g><g id="Layer_3" data-name="Layer 3"><circle class="cls-2" cx="350" cy="350" r="276"/></g><g id="curves"><path class="cls-3" d="M148,354.5s43.46-40.64,101.4,0,101.4,0,101.4,0"/><path class="cls-3" d="M351.19,354.5s43.46-40.64,101.4,0,101.4,0,101.4,0"/><path class="cls-3" d="M148,304.5s43.46-40.64,101.4,0,101.4,0,101.4,0"/><path class="cls-3" d="M351.19,304.5s43.46-40.64,101.4,0,101.4,0,101.4,0"/><path class="cls-3" d="M148,404.5s43.46-40.64,101.4,0,101.4,0,101.4,0"/><path class="cls-3" d="M351.19,404.5s43.46-40.64,101.4,0,101.4,0,101.4,0"/></g></svg>